<svg xmlns="http://www.w3.org/2000/svg" xmlns:xlink="http://www.w3.org/1999/xlink" width="500" zoomAndPan="magnify" viewBox="0 0 375 374.999991" height="500" preserveAspectRatio="xMidYMid meet" version="1.0"><defs><g/></defs><g fill="#000000" fill-opacity="1"><g transform="translate(5.837043, 203.624987)"><g><path d="M 33.359375 -56.15625 C 36.023438 -56.15625 38.332031 -55.898438 40.28125 -55.390625 C 42.226562 -54.890625 44.109375 -54.238281 45.921875 -53.4375 C 47.410156 -52.851562 48.367188 -52.5625 48.796875 -52.5625 C 49.441406 -52.5625 50.054688 -52.894531 50.640625 -53.5625 C 51.222656 -54.226562 51.625 -55.09375 51.84375 -56.15625 L 53.203125 -56.15625 L 54.5625 -37.59375 L 53.203125 -37.59375 C 52.722656 -40.851562 51.535156 -43.65625 49.640625 -46 C 47.742188 -48.34375 45.421875 -50.113281 42.671875 -51.3125 C 39.929688 -52.519531 37.039062 -53.125 34 -53.125 C 27.757812 -53.125 22.757812 -50.894531 19 -46.4375 C 15.238281 -41.988281 13.359375 -35.253906 13.359375 -26.234375 C 13.359375 -20.898438 14.382812 -16.429688 16.4375 -12.828125 C 18.488281 -9.234375 21.179688 -6.566406 24.515625 -4.828125 C 27.847656 -3.097656 31.410156 -2.234375 35.203125 -2.234375 C 39.097656 -2.234375 42.800781 -3.21875 46.3125 -5.1875 C 49.832031 -7.164062 52.582031 -9.8125 54.5625 -13.125 L 55.765625 -12.3125 C 50.484375 -3.300781 42.695312 1.203125 32.40625 1.203125 C 27.070312 1.203125 22.191406 -0.0351562 17.765625 -2.515625 C 13.335938 -4.992188 9.828125 -8.367188 7.234375 -12.640625 C 4.648438 -16.910156 3.359375 -21.601562 3.359375 -26.71875 C 3.359375 -32.101562 4.691406 -37.046875 7.359375 -41.546875 C 10.023438 -46.054688 13.648438 -49.617188 18.234375 -52.234375 C 22.828125 -54.847656 27.867188 -56.15625 33.359375 -56.15625 Z M 33.359375 -56.15625 "/></g></g></g><g fill="#000000" fill-opacity="1"><g transform="translate(63.351452, 203.624987)"><g><path d="M 14.796875 -30.484375 L 14.953125 -30.484375 C 16.347656 -32.929688 17.859375 -34.796875 19.484375 -36.078125 C 21.109375 -37.359375 22.929688 -38 24.953125 -38 C 26.398438 -38 27.578125 -37.554688 28.484375 -36.671875 C 29.390625 -35.796875 29.84375 -34.71875 29.84375 -33.4375 C 29.84375 -32.425781 29.484375 -31.570312 28.765625 -30.875 C 28.046875 -30.1875 27.226562 -29.84375 26.3125 -29.84375 C 25.570312 -29.84375 24.960938 -29.988281 24.484375 -30.28125 C 24.003906 -30.570312 23.523438 -30.957031 23.046875 -31.4375 C 22.929688 -31.488281 22.738281 -31.644531 22.46875 -31.90625 C 22.207031 -32.175781 21.929688 -32.378906 21.640625 -32.515625 C 21.347656 -32.648438 21.039062 -32.71875 20.71875 -32.71875 C 19.488281 -32.71875 18.429688 -32.222656 17.546875 -31.234375 C 16.671875 -30.253906 15.753906 -28.910156 14.796875 -27.203125 L 14.796875 -8.484375 C 14.796875 -6.398438 15.019531 -4.847656 15.46875 -3.828125 C 15.925781 -2.816406 16.632812 -2.164062 17.59375 -1.875 C 18.5625 -1.582031 19.976562 -1.4375 21.84375 -1.4375 L 21.84375 0 L 2.15625 0 L 2.15625 -1.4375 L 2.5625 -1.4375 C 4.53125 -1.4375 5.96875 -1.914062 6.875 -2.875 C 7.78125 -3.832031 8.234375 -5.59375 8.234375 -8.15625 L 8.234375 -26.40625 C 8.234375 -28.90625 7.96875 -30.539062 7.4375 -31.3125 C 6.90625 -32.09375 5.972656 -32.484375 4.640625 -32.484375 C 3.835938 -32.484375 3.171875 -32.320312 2.640625 -32 L 2.15625 -33.359375 L 13.359375 -38 L 14.796875 -38 Z M 14.796875 -30.484375 "/></g></g></g><g fill="#000000" fill-opacity="1"><g transform="translate(94.148462, 203.624987)"><g><path d="M 19.125 -38 C 27.125 -38 31.125 -34.800781 31.125 -28.40625 L 31.125 -7.203125 C 31.125 -5.765625 31.335938 -4.816406 31.765625 -4.359375 C 32.191406 -3.910156 32.75 -3.6875 33.4375 -3.6875 C 34.238281 -3.6875 34.984375 -3.910156 35.671875 -4.359375 C 36.367188 -4.816406 37.382812 -5.679688 38.71875 -6.953125 L 38.71875 -4.953125 C 36.695312 -2.660156 35.03125 -1.070312 33.71875 -0.1875 C 32.414062 0.6875 31.070312 1.125 29.6875 1.125 C 28.132812 1.125 26.890625 0.578125 25.953125 -0.515625 C 25.023438 -1.609375 24.5625 -3.222656 24.5625 -5.359375 C 22.21875 -3.117188 20.046875 -1.476562 18.046875 -0.4375 C 16.046875 0.601562 13.867188 1.125 11.515625 1.125 C 9.171875 1.125 7.195312 0.242188 5.59375 -1.515625 C 4 -3.273438 3.203125 -5.410156 3.203125 -7.921875 C 3.203125 -12.179688 5.46875 -15.488281 10 -17.84375 C 14.320312 -20.132812 19.175781 -22.238281 24.5625 -24.15625 L 24.5625 -26.40625 C 24.5625 -28.53125 24.414062 -30.234375 24.125 -31.515625 C 23.832031 -32.796875 23.164062 -33.820312 22.125 -34.59375 C 21.082031 -35.375 19.492188 -35.765625 17.359375 -35.765625 C 15.273438 -35.765625 13.726562 -35.253906 12.71875 -34.234375 C 11.707031 -33.222656 11.203125 -31.972656 11.203125 -30.484375 L 11.28125 -28.40625 C 11.28125 -27.5 10.984375 -26.75 10.390625 -26.15625 C 9.804688 -25.570312 9.0625 -25.28125 8.15625 -25.28125 C 7.144531 -25.28125 6.316406 -25.570312 5.671875 -26.15625 C 5.035156 -26.75 4.71875 -27.578125 4.71875 -28.640625 C 4.71875 -31.304688 5.96875 -33.53125 8.46875 -35.3125 C 10.976562 -37.101562 14.53125 -38 19.125 -38 Z M 10 -10 C 10 -8.1875 10.570312 -6.640625 11.71875 -5.359375 C 12.863281 -4.078125 14.289062 -3.4375 16 -3.4375 C 18.71875 -3.4375 21.570312 -4.769531 24.5625 -7.4375 L 24.5625 -22 C 20.820312 -20.457031 17.9375 -19.109375 15.90625 -17.953125 C 13.882812 -16.804688 12.394531 -15.617188 11.4375 -14.390625 C 10.476562 -13.171875 10 -11.707031 10 -10 Z M 10 -10 "/></g></g></g><g fill="#000000" fill-opacity="1"><g transform="translate(134.144576, 203.624987)"><g><path d="M 10.875 -57.59375 C 12.050781 -57.59375 13.039062 -57.191406 13.84375 -56.390625 C 14.644531 -55.597656 15.046875 -54.640625 15.046875 -53.515625 C 15.046875 -52.347656 14.644531 -51.363281 13.84375 -50.5625 C 13.039062 -49.757812 12.050781 -49.359375 10.875 -49.359375 C 9.757812 -49.359375 8.800781 -49.757812 8 -50.5625 C 7.195312 -51.363281 6.796875 -52.347656 6.796875 -53.515625 C 6.796875 -54.640625 7.195312 -55.597656 8 -56.390625 C 8.800781 -57.191406 9.757812 -57.59375 10.875 -57.59375 Z M 14.40625 -8.3125 C 14.40625 -5.707031 14.828125 -3.921875 15.671875 -2.953125 C 16.523438 -1.992188 17.914062 -1.488281 19.84375 -1.4375 L 19.84375 0 L 1.84375 0 L 1.84375 -1.4375 C 4.03125 -1.4375 5.578125 -1.941406 6.484375 -2.953125 C 7.390625 -3.972656 7.84375 -5.816406 7.84375 -8.484375 L 7.84375 -27.84375 C 7.84375 -29.28125 7.519531 -30.453125 6.875 -31.359375 C 6.238281 -32.265625 5.253906 -32.71875 3.921875 -32.71875 C 3.335938 -32.71875 2.800781 -32.582031 2.3125 -32.3125 L 1.84375 -33.765625 L 12.953125 -38 L 14.40625 -38 Z M 14.40625 -8.3125 "/></g></g></g><g fill="#000000" fill-opacity="1"><g transform="translate(155.822465, 203.624987)"><g><path d="M 20.3125 -38 C 23.300781 -38 26.050781 -37.226562 28.5625 -35.6875 L 37.28125 -35.6875 C 38.03125 -35.6875 38.46875 -35.578125 38.59375 -35.359375 C 38.726562 -35.148438 38.796875 -34.59375 38.796875 -33.6875 C 38.796875 -32.882812 38.742188 -32.390625 38.640625 -32.203125 C 38.535156 -32.015625 38.21875 -31.921875 37.6875 -31.921875 L 31.59375 -31.921875 C 32.34375 -30.742188 32.878906 -29.648438 33.203125 -28.640625 C 33.523438 -27.628906 33.6875 -26.457031 33.6875 -25.125 C 33.6875 -22.664062 33.097656 -20.460938 31.921875 -18.515625 C 30.742188 -16.566406 29.101562 -15.046875 27 -13.953125 C 24.894531 -12.859375 22.507812 -12.3125 19.84375 -12.3125 C 18.132812 -12.3125 16.375 -12.582031 14.5625 -13.125 C 12.425781 -11.195312 11.359375 -9.59375 11.359375 -8.3125 C 11.359375 -7.625 11.742188 -7.066406 12.515625 -6.640625 C 13.296875 -6.210938 14.910156 -6 17.359375 -6 L 26.484375 -6 C 29.679688 -6 32.476562 -5.304688 34.875 -3.921875 C 37.28125 -2.535156 38.484375 -0.484375 38.484375 2.234375 C 38.484375 4.796875 37.519531 7.207031 35.59375 9.46875 C 33.675781 11.738281 31.128906 13.550781 27.953125 14.90625 C 24.785156 16.269531 21.390625 16.953125 17.765625 16.953125 C 15.304688 16.953125 12.890625 16.59375 10.515625 15.875 C 8.140625 15.15625 6.21875 14.207031 4.75 13.03125 C 3.289062 11.863281 2.5625 10.664062 2.5625 9.4375 C 2.5625 8.425781 3.039062 7.210938 4 5.796875 C 4.957031 4.390625 7.007812 2.109375 10.15625 -1.046875 C 7.488281 -1.835938 6.15625 -3.140625 6.15625 -4.953125 C 6.15625 -6.398438 6.710938 -7.851562 7.828125 -9.3125 C 8.953125 -10.78125 10.53125 -12.316406 12.5625 -13.921875 C 10.425781 -15.035156 8.769531 -16.566406 7.59375 -18.515625 C 6.425781 -20.460938 5.84375 -22.582031 5.84375 -24.875 C 5.84375 -27.332031 6.46875 -29.5625 7.71875 -31.5625 C 8.96875 -33.5625 10.695312 -35.132812 12.90625 -36.28125 C 15.125 -37.425781 17.59375 -38 20.3125 -38 Z M 12.640625 -28.234375 C 12.640625 -26.265625 12.90625 -24.210938 13.4375 -22.078125 C 13.96875 -19.941406 14.875 -18.113281 16.15625 -16.59375 C 17.4375 -15.070312 19.066406 -14.3125 21.046875 -14.3125 C 22.804688 -14.3125 24.21875 -15.148438 25.28125 -16.828125 C 26.34375 -18.515625 26.875 -20.664062 26.875 -23.28125 C 26.875 -24.882812 26.582031 -26.65625 26 -28.59375 C 25.414062 -30.539062 24.507812 -32.222656 23.28125 -33.640625 C 22.050781 -35.054688 20.476562 -35.765625 18.5625 -35.765625 C 16.957031 -35.765625 15.566406 -35.082031 14.390625 -33.71875 C 13.222656 -32.363281 12.640625 -30.535156 12.640625 -28.234375 Z M 24.796875 0.078125 L 21.84375 0.078125 C 19.4375 0.078125 17.472656 0.0390625 15.953125 -0.03125 C 14.441406 -0.113281 13.125 -0.316406 12 -0.640625 C 10.769531 0.742188 9.863281 1.984375 9.28125 3.078125 C 8.695312 4.171875 8.40625 5.222656 8.40625 6.234375 C 8.40625 8.160156 9.722656 9.628906 12.359375 10.640625 C 14.992188 11.648438 18.179688 12.15625 21.921875 12.15625 C 24.585938 12.15625 26.984375 11.804688 29.109375 11.109375 C 31.242188 10.421875 32.925781 9.460938 34.15625 8.234375 C 35.382812 7.015625 36 5.65625 36 4.15625 C 36 2.445312 35.101562 1.351562 33.3125 0.875 C 31.53125 0.394531 28.691406 0.128906 24.796875 0.078125 Z M 24.796875 0.078125 "/></g></g></g><g fill="#000000" fill-opacity="1"><g transform="translate(195.81858, 203.624987)"><g><path d="M 15.046875 -38 C 16.585938 -38 18.160156 -37.734375 19.765625 -37.203125 C 20.878906 -36.828125 21.785156 -36.640625 22.484375 -36.640625 C 22.960938 -36.640625 23.46875 -36.800781 24 -37.125 L 25.4375 -37.125 L 25.4375 -25.84375 L 24 -25.84375 C 23.570312 -28.769531 22.53125 -31.15625 20.875 -33 C 19.226562 -34.84375 17.226562 -35.765625 14.875 -35.765625 C 13.007812 -35.765625 11.476562 -35.3125 10.28125 -34.40625 C 9.082031 -33.5 8.484375 -32.269531 8.484375 -30.71875 C 8.484375 -29.488281 8.816406 -28.429688 9.484375 -27.546875 C 10.148438 -26.671875 11.082031 -25.859375 12.28125 -25.109375 C 13.476562 -24.367188 15.359375 -23.332031 17.921875 -22 C 21.222656 -20.238281 23.753906 -18.503906 25.515625 -16.796875 C 27.273438 -15.085938 28.15625 -12.796875 28.15625 -9.921875 C 28.15625 -7.359375 27.5 -5.25 26.1875 -3.59375 C 24.882812 -1.945312 23.3125 -0.75 21.46875 0 C 19.632812 0.75 17.890625 1.125 16.234375 1.125 C 14.640625 1.125 12.484375 0.75 9.765625 0 C 8.535156 -0.375 7.707031 -0.5625 7.28125 -0.5625 C 6.582031 -0.5625 6.101562 -0.375 5.84375 0 L 4.15625 0 L 4.15625 -12.484375 L 5.515625 -12.484375 C 5.890625 -9.171875 7.085938 -6.488281 9.109375 -4.4375 C 11.140625 -2.382812 13.539062 -1.359375 16.3125 -1.359375 C 17.96875 -1.359375 19.410156 -1.890625 20.640625 -2.953125 C 21.867188 -4.023438 22.484375 -5.359375 22.484375 -6.953125 C 22.484375 -8.828125 21.945312 -10.296875 20.875 -11.359375 C 19.8125 -12.421875 18.625 -13.335938 17.3125 -14.109375 C 16.007812 -14.890625 15.144531 -15.382812 14.71875 -15.59375 C 14.507812 -15.757812 13.765625 -16.1875 12.484375 -16.875 C 10.554688 -17.945312 9.019531 -18.894531 7.875 -19.71875 C 6.726562 -20.539062 5.769531 -21.617188 5 -22.953125 C 4.226562 -24.285156 3.84375 -25.941406 3.84375 -27.921875 C 3.84375 -30.910156 4.894531 -33.335938 7 -35.203125 C 9.101562 -37.066406 11.785156 -38 15.046875 -38 Z M 15.046875 -38 "/></g></g></g><g fill="#000000" fill-opacity="1"><g transform="translate(226.615579, 203.624987)"><g><path d="M 14.484375 -57.359375 L 14.484375 -8.40625 C 14.484375 -5.738281 14.867188 -3.910156 15.640625 -2.921875 C 16.410156 -1.929688 17.8125 -1.4375 19.84375 -1.4375 L 19.84375 0 L 1.84375 0 L 1.84375 -1.4375 C 3.332031 -1.4375 4.503906 -1.597656 5.359375 -1.921875 C 6.210938 -2.242188 6.851562 -2.910156 7.28125 -3.921875 C 7.707031 -4.929688 7.921875 -6.425781 7.921875 -8.40625 L 7.921875 -46.234375 C 7.921875 -49.804688 6.664062 -51.59375 4.15625 -51.59375 C 3.46875 -51.59375 2.851562 -51.460938 2.3125 -51.203125 L 1.84375 -52.5625 L 13.046875 -57.359375 Z M 14.484375 -57.359375 "/></g></g></g><g fill="#000000" fill-opacity="1"><g transform="translate(248.29348, 203.624987)"><g><path d="M 10.875 -57.59375 C 12.050781 -57.59375 13.039062 -57.191406 13.84375 -56.390625 C 14.644531 -55.597656 15.046875 -54.640625 15.046875 -53.515625 C 15.046875 -52.347656 14.644531 -51.363281 13.84375 -50.5625 C 13.039062 -49.757812 12.050781 -49.359375 10.875 -49.359375 C 9.757812 -49.359375 8.800781 -49.757812 8 -50.5625 C 7.195312 -51.363281 6.796875 -52.347656 6.796875 -53.515625 C 6.796875 -54.640625 7.195312 -55.597656 8 -56.390625 C 8.800781 -57.191406 9.757812 -57.59375 10.875 -57.59375 Z M 14.40625 -8.3125 C 14.40625 -5.707031 14.828125 -3.921875 15.671875 -2.953125 C 16.523438 -1.992188 17.914062 -1.488281 19.84375 -1.4375 L 19.84375 0 L 1.84375 0 L 1.84375 -1.4375 C 4.03125 -1.4375 5.578125 -1.941406 6.484375 -2.953125 C 7.390625 -3.972656 7.84375 -5.816406 7.84375 -8.484375 L 7.84375 -27.84375 C 7.84375 -29.28125 7.519531 -30.453125 6.875 -31.359375 C 6.238281 -32.265625 5.253906 -32.71875 3.921875 -32.71875 C 3.335938 -32.71875 2.800781 -32.582031 2.3125 -32.3125 L 1.84375 -33.765625 L 12.953125 -38 L 14.40625 -38 Z M 14.40625 -8.3125 "/></g></g></g><g fill="#000000" fill-opacity="1"><g transform="translate(269.971381, 203.624987)"><g><path d="M 15.046875 -38 C 16.585938 -38 18.160156 -37.734375 19.765625 -37.203125 C 20.878906 -36.828125 21.785156 -36.640625 22.484375 -36.640625 C 22.960938 -36.640625 23.46875 -36.800781 24 -37.125 L 25.4375 -37.125 L 25.4375 -25.84375 L 24 -25.84375 C 23.570312 -28.769531 22.53125 -31.15625 20.875 -33 C 19.226562 -34.84375 17.226562 -35.765625 14.875 -35.765625 C 13.007812 -35.765625 11.476562 -35.3125 10.28125 -34.40625 C 9.082031 -33.5 8.484375 -32.269531 8.484375 -30.71875 C 8.484375 -29.488281 8.816406 -28.429688 9.484375 -27.546875 C 10.148438 -26.671875 11.082031 -25.859375 12.28125 -25.109375 C 13.476562 -24.367188 15.359375 -23.332031 17.921875 -22 C 21.222656 -20.238281 23.753906 -18.503906 25.515625 -16.796875 C 27.273438 -15.085938 28.15625 -12.796875 28.15625 -9.921875 C 28.15625 -7.359375 27.5 -5.25 26.1875 -3.59375 C 24.882812 -1.945312 23.3125 -0.75 21.46875 0 C 19.632812 0.75 17.890625 1.125 16.234375 1.125 C 14.640625 1.125 12.484375 0.75 9.765625 0 C 8.535156 -0.375 7.707031 -0.5625 7.28125 -0.5625 C 6.582031 -0.5625 6.101562 -0.375 5.84375 0 L 4.15625 0 L 4.15625 -12.484375 L 5.515625 -12.484375 C 5.890625 -9.171875 7.085938 -6.488281 9.109375 -4.4375 C 11.140625 -2.382812 13.539062 -1.359375 16.3125 -1.359375 C 17.96875 -1.359375 19.410156 -1.890625 20.640625 -2.953125 C 21.867188 -4.023438 22.484375 -5.359375 22.484375 -6.953125 C 22.484375 -8.828125 21.945312 -10.296875 20.875 -11.359375 C 19.8125 -12.421875 18.625 -13.335938 17.3125 -14.109375 C 16.007812 -14.890625 15.144531 -15.382812 14.71875 -15.59375 C 14.507812 -15.757812 13.765625 -16.1875 12.484375 -16.875 C 10.554688 -17.945312 9.019531 -18.894531 7.875 -19.71875 C 6.726562 -20.539062 5.769531 -21.617188 5 -22.953125 C 4.226562 -24.285156 3.84375 -25.941406 3.84375 -27.921875 C 3.84375 -30.910156 4.894531 -33.335938 7 -35.203125 C 9.101562 -37.066406 11.785156 -38 15.046875 -38 Z M 15.046875 -38 "/></g></g></g><g fill="#000000" fill-opacity="1"><g transform="translate(300.768391, 203.624987)"><g><path d="M 13.28125 -48.875 L 14.5625 -48.875 L 14.5625 -37.125 L 22.953125 -37.125 L 22.953125 -34.640625 L 14.5625 -34.640625 L 14.5625 -8.875 C 14.5625 -7.488281 14.957031 -6.25 15.75 -5.15625 C 16.550781 -4.0625 17.675781 -3.515625 19.125 -3.515625 C 20.082031 -3.515625 20.929688 -3.738281 21.671875 -4.1875 C 22.421875 -4.644531 23.222656 -5.4375 24.078125 -6.5625 L 25.6875 -6.5625 C 24.289062 -4 22.789062 -2.078125 21.1875 -0.796875 C 19.59375 0.484375 17.726562 1.125 15.59375 1.125 C 13.25 1.125 11.394531 0.257812 10.03125 -1.46875 C 8.675781 -3.207031 8 -5.570312 8 -8.5625 L 8 -34.640625 L 2.3125 -34.640625 L 2.3125 -36.234375 C 5.039062 -37.359375 7.335938 -39 9.203125 -41.15625 C 11.066406 -43.320312 12.425781 -45.894531 13.28125 -48.875 Z M 13.28125 -48.875 "/></g></g></g><g fill="#8c52ff" fill-opacity="1"><g transform="translate(325.010402, 171.249994)"><g><path d="M 7.28125 -14.765625 L 7.359375 -14.765625 C 8.109375 -16.046875 9.03125 -17.070312 10.125 -17.84375 C 11.21875 -18.613281 12.375 -19 13.59375 -19 C 14.925781 -19 16.144531 -18.59375 17.25 -17.78125 C 18.363281 -16.96875 19.242188 -15.851562 19.890625 -14.4375 C 20.546875 -13.019531 20.875 -11.472656 20.875 -9.796875 C 20.875 -7.898438 20.460938 -6.160156 19.640625 -4.578125 C 18.816406 -2.992188 17.695312 -1.738281 16.28125 -0.8125 C 14.863281 0.101562 13.316406 0.5625 11.640625 0.5625 C 9.929688 0.5625 8.476562 -0.0078125 7.28125 -1.15625 L 7.28125 4.15625 C 7.28125 5.195312 7.382812 5.96875 7.59375 6.46875 C 7.8125 6.976562 8.148438 7.320312 8.609375 7.5 C 9.078125 7.675781 9.753906 7.765625 10.640625 7.765625 L 10.640625 8.484375 L 0.6875 8.484375 L 0.6875 7.765625 C 1.5625 7.765625 2.234375 7.671875 2.703125 7.484375 C 3.171875 7.296875 3.503906 6.945312 3.703125 6.4375 C 3.898438 5.9375 4 5.191406 4 4.203125 L 4 -13.953125 C 4 -14.648438 3.851562 -15.21875 3.5625 -15.65625 C 3.269531 -16.09375 2.816406 -16.3125 2.203125 -16.3125 C 1.878906 -16.3125 1.476562 -16.234375 1 -16.078125 L 0.6875 -16.796875 L 6.59375 -19 L 7.28125 -19 Z M 7.28125 -13.515625 L 7.28125 -5.078125 C 7.28125 -3.878906 7.691406 -2.847656 8.515625 -1.984375 C 9.347656 -1.117188 10.441406 -0.6875 11.796875 -0.6875 C 13.535156 -0.6875 14.914062 -1.382812 15.9375 -2.78125 C 16.96875 -4.175781 17.484375 -6.050781 17.484375 -8.40625 C 17.484375 -10.664062 16.96875 -12.519531 15.9375 -13.96875 C 14.914062 -15.425781 13.578125 -16.15625 11.921875 -16.15625 C 10.265625 -16.15625 8.71875 -15.273438 7.28125 -13.515625 Z M 7.28125 -13.515625 "/></g></g></g><g fill="#8c52ff" fill-opacity="1"><g transform="translate(347.088206, 171.249994)"><g><path d="M 7.203125 -15.078125 L 7.28125 -15.078125 C 8.15625 -16.273438 9.148438 -17.226562 10.265625 -17.9375 C 11.390625 -18.644531 12.5 -19 13.59375 -19 C 15.164062 -19 16.359375 -18.40625 17.171875 -17.21875 C 17.992188 -16.03125 18.40625 -14.570312 18.40625 -12.84375 L 18.40625 -4.28125 C 18.40625 -3.269531 18.507812 -2.507812 18.71875 -2 C 18.9375 -1.488281 19.25 -1.144531 19.65625 -0.96875 C 20.070312 -0.800781 20.664062 -0.71875 21.4375 -0.71875 L 21.4375 0 L 12.15625 0 L 12.15625 -0.71875 C 12.875 -0.71875 13.441406 -0.796875 13.859375 -0.953125 C 14.273438 -1.117188 14.585938 -1.453125 14.796875 -1.953125 C 15.015625 -2.460938 15.125 -3.222656 15.125 -4.234375 L 15.125 -13.359375 C 15.125 -14.210938 14.847656 -14.957031 14.296875 -15.59375 C 13.753906 -16.238281 12.972656 -16.5625 11.953125 -16.5625 C 11.128906 -16.5625 10.347656 -16.367188 9.609375 -15.984375 C 8.878906 -15.597656 8.078125 -14.960938 7.203125 -14.078125 L 7.203125 -4.234375 C 7.203125 -3.203125 7.300781 -2.4375 7.5 -1.9375 C 7.695312 -1.445312 8.015625 -1.117188 8.453125 -0.953125 C 8.898438 -0.796875 9.550781 -0.71875 10.40625 -0.71875 L 10.40625 0 L 1 0 L 1 -0.71875 C 1.71875 -0.71875 2.28125 -0.800781 2.6875 -0.96875 C 3.101562 -1.144531 3.410156 -1.492188 3.609375 -2.015625 C 3.816406 -2.535156 3.921875 -3.289062 3.921875 -4.28125 L 3.921875 -23.078125 C 3.921875 -24.203125 3.742188 -24.941406 3.390625 -25.296875 C 3.046875 -25.660156 2.609375 -25.84375 2.078125 -25.84375 C 1.703125 -25.84375 1.34375 -25.757812 1 -25.59375 L 0.765625 -26.28125 L 6.484375 -28.6875 L 7.203125 -28.6875 Z M 7.203125 -15.078125 "/></g></g></g></svg>